# AST/ASF file generated using VICON BodyLanguage
# -----------------------------------------------
:version 1.10
:name VICON
:units
  mass 1.0
  length 0.45
  angle deg
:documentation
   .ast/.asf automatically generated from VICON data using
   VICON BodyBuilder and BodyLanguage model FoxedUp or BRILLIANT.MOD
:root
   order TX TY TZ RX RY RZ
   axis XYZ
   position 0 0 0  
   orientation 0 0 0 
:bonedata
  begin
     id 1 
     name lhipjoint
     direction 0.756833 -0.6125 0.228138 
     length 2.53827 
     axis 0 0 0  XYZ
  end
  begin
     id 2 
     name lfemur
     direction 0.34202 -0.939693 0  
     length 6.51821  
     axis 0 0 20  XYZ
    dof rx ry rz
    limits (-160.0 20.0)
           (-70.0 70.0)
           (-60.0 70.0)
  end
  begin
     id 3 
     name ltibia
     direction 0.34202 -0.939693 0   
     length 6.99902   
     axis 0 0 20   XYZ
    dof rx
    limits (-10.0 170.0)
  end
  begin
     id 4 
     name lfoot
     direction 0.0951515 -0.261427 0.960522   
     length 1.92102   
     axis -90 7.62852e-016 20   XYZ
    dof rx rz
    limits (-45.0 90.0)
           (-70.0 20.0)
  end
  begin
     id 5 
     name ltoes
     direction 1.53539e-011 -4.21781e-011 1   
     length 0.964376   
     axis -90 7.62852e-016 20   XYZ
    dof rx
    limits (-90.0 20.0)
  end
  begin
     id 6 
     name rhipjoint
     direction -0.752153 -0.617542 0.230017   
     length 2.51754  
     axis 0 0 0  XYZ 
  end
  begin
     id 7 
     name rfemur
     direction -0.34202 -0.939693 0   
     length 6.82377   
     axis 0 0 -20   XYZ
    dof rx ry rz
    limits (-160.0 20.0)
           (-70.0 70.0)
           (-70.0 60.0)
  end
  begin
     id 8 
     name rtibia
     direction -0.34202 -0.939693 0   
     length 6.98689   
     axis 0 0 -20   XYZ
    dof rx
    limits (-10.0 170.0)
 end
 begin
     id 9 
     name rfoot
     direction -0.0900426 -0.24739 0.964723   
     length 2.03215  
     axis -90 -7.62852e-016 -20   XYZ
    dof rx rz
    limits (-45.0 90.0)
           (-20.0 70.0)
  end
  begin
     id 10 
     name rtoes
     direction -1.53466e-011 -4.22206e-011 1   
     length 1.0197   
     axis -90 -7.62852e-016 -20   XYZ
    dof rx
    limits (-90.0 20.0)
  end
  begin
     id 11 
     name lowerback
     direction 0.0184183 0.995705 -0.0907278   
     length 2.019   
     axis 0 0 0   XYZ
    dof rx ry rz
    limits (-20.0 45.0)
           (-30.0 30.0)
           (-30.0 30.0)
  end
  begin
     id 12 
     name upperback
     direction 0.00281055 0.998777 0.0493607   
     length 1.99623   
     axis 0 0 0   XYZ
    dof rx ry rz
    limits (-20.0 45.0)
           (-30.0 30.0)
           (-30.0 30.0)
  end
  begin
     id 13 
     name thorax
     direction -0.00665507 0.995706 0.092331   
     length 2.02811   
     axis 0 0 0   XYZ
    dof rx ry rz
    limits (-20.0 45.0)
           (-30.0 30.0)
           (-30.0 30.0)
  end
  begin
     id 14 
     name lowerneck
     direction -0.0960965 0.994358 0.0449225   
     length 1.71265   
     axis 0 0 0   XYZ
    dof rx ry rz
    limits (-20.0 45.0)
           (-30.0 30.0)
           (-30.0 30.0)
  end
  begin
     id 15 
     name upperneck
     direction 0.13642 0.985357 -0.102278   
     length 1.73016   
     axis 0 0 0   XYZ
    dof rx ry rz
    limits (-20.0 45.0)
           (-30.0 30.0)
           (-30.0 30.0)
  end
  begin
     id 16
     name head
     direction 0.0556079 0.997632 -0.040479  
     length 1.74275  
     axis 0 0 0   XYZ
    dof rx ry rz
    limits (-20.0 45.0)
           (-30.0 30.0)
           (-30.0 30.0)
  end
  begin
     id 17 
     name lclavicle
     direction 0.90877 0.417247 -0.00652364  
     length 3.25514  
     axis 0 0 0   XYZ
    dof ry rz
    limits (-20.0 10.0)
           (0.0 20.0)
  end
  begin
     id 18 
     name lhumerus
     direction 1 -4.48949e-011 8.31417e-028   
     length 4.84834   
     axis 180 -30 -90   XYZ
    dof rx ry rz
    limits (-60.0 90.0)
           (-90.0 90.0)
           (-90.0 90.0)
  end
  begin
     id 19
     name lradius
     direction 1 -4.48984e-011 3.45616e-027   
     length 2.99713   
     axis 180 -30 -90   XYZ
    dof rx
    limits (-10.0 170.0)
  end
  begin
     id 20
     name lwrist
     direction 1 -4.4891e-011 4.0479e-027   
     length 1.49857   
     axis -1.61768e-015 90 90   XYZ
    dof ry
    limits (-180.0 0.0)
 end
  begin
     id 21 
     name lhand
     direction 1 -4.49025e-011 8.0958e-027   
     length 0.693987   
     axis -5.16581e-015 90 90   XYZ
    dof rx rz
    limits (-90.0 90.0)
           (-45.0 45.0)
  end
  begin
     id 22 
     name lfingers
     direction 1 -4.4888e-011 1.61916e-026   
     length 0.55951   
     axis -1.03316e-014 90 90   XYZ
    dof rx
    limits (0.0 90.0)
  end
  begin
     id 23
     name lthumb
     direction 0.707107 -6.3493e-011 0.707107   
     length 0.803348   
     axis -90 45 2.85299e-015   XYZ
    dof rx rz
    limits (-45.0 45.0)
           (-45.0 45.0)
  end
  begin
     id 24 
     name rclavicle
     direction -0.906655 0.41906 0.0486307   
     length 3.3311  
     axis 0 0 0   XYZ 
    dof ry rz
    limits (-10.0 20.0)
           (-20.0 0.0)
  end
  begin
     id 25 
     name rhumerus
     direction -1 -4.48959e-011 6.37764e-018  
     length 4.93457   
     axis 180 30 90   XYZ
    dof rx ry rz
    limits (-90.0 60.0)
           (-90.0 90.0)
           (-90.0 90.0)
  end
  begin
     id 26 
     name rradius
     direction -1 -4.48957e-011 2.20847e-027   
     length 3.3443   
     axis 180 30 90   XYZ
    dof rx
    limits (-10.0 170.0)
  end
  begin
     id 27 
     name rwrist
     direction -1 -4.49008e-011 4.0479e-027   
     length 1.67215   
     axis -1.61768e-015 -90 -90   XYZ
    dof ry
    limits (-180.0 0.0)
  end
  begin
     id 28
     name rhand
     direction -1 -4.49013e-011 8.0958e-027   
     length 0.677363   
     axis -5.16581e-015 -90 -90   XYZ
    dof rx rz
    limits (-90.0 90.0)
           (-45.0 45.0)
  end
  begin
     id 29
     name rfingers
     direction -1 -4.48832e-011 1.61916e-026   
     length 0.546107   
     axis -1.03316e-014 -90 -90   XYZ
    dof rx
    limits (0.0 90.0)
  end
  begin
     id 30
     name rthumb
     direction -0.707107 -6.34895e-011 0.707107   
     length 0.784104   
     axis -90 -45 -2.85299e-015   XYZ
    dof rx rz
    limits (-45.0 45.0)
           (-45.0 45.0)
  end
:hierarchy
  begin
    root lhipjoint rhipjoint lowerback
    lhipjoint lfemur
    lfemur ltibia
    ltibia lfoot
    lfoot ltoes
    rhipjoint rfemur
    rfemur rtibia
    rtibia rfoot
    rfoot rtoes
    lowerback upperback
    upperback thorax
    thorax lowerneck lclavicle rclavicle
    lowerneck upperneck
    upperneck head
    lclavicle lhumerus
    lhumerus lradius
    lradius lwrist
    lwrist lhand lthumb
    lhand lfingers
    rclavicle rhumerus
    rhumerus rradius
    rradius rwrist
    rwrist rhand rthumb
    rhand rfingers
  end

#!OML:ASF H:\Terrain\Patient Classification 1\junglegym\FridayTest\junglegym.ASF
:FULLY-SPECIFIED
:DEGREES
820
root 16.4014 16.4492 4.51973 225.126 -87.8549 -208.556
lowerback 14.8162 -0.334584 0.13912
upperback 1.15182 -0.435439 0.700466
thorax -7.0865 -0.233738 0.758767
lowerneck -1.11053 -1.18787 -14.9904
upperneck 17.8859 -4.61639 20.3498
head 6.20092 -2.18876 9.09796
rclavicle -9.44227e-015 -3.57812e-015
rhumerus -42.8222 -12.2785 -66.209
rradius 28.9442
rwrist -6.63112
rhand -30.6313 26.8102
rfingers 7.12502
rthumb -3.92711 -3.1334
lclavicle -9.44227e-015 -3.57812e-015
lhumerus -40.5312 12.6942 69.1065
lradius 16.0353
lwrist -45.0914
lhand -11.7991 27.512
lfingers 7.12502
lthumb 14.2506 57.0031
rfemur -50.3557 6.22354 15.3218
rtibia 45.1916
rfoot -22.922 -9.27347
rtoes 20.8555
lfemur -9.70679 -6.24177 -24.9564
ltibia 11.9655
lfoot -15.9843 15.4454
ltoes -20.083
821
root 16.4236 16.5661 4.54366 242.276 -87.3759 -226.485
lowerback 15.2344 -0.288963 -0.455407
upperback 1.22269 -0.495995 0.458493
thorax -7.2398 -0.249398 0.854875
lowerneck -0.841992 -1.31575 -15.2879
upperneck 17.8566 -4.88977 20.7503
head 6.20805 -2.33732 9.28867
rclavicle 2.08724e-015 -7.95139e-015
rhumerus -41.435 -11.2527 -68.1065
rradius 31.1269
rwrist -9.33499
rhand -30.8634 26.783
rfingers 7.12502
rthumb -4.15123 -3.1563
lclavicle 2.08724e-015 -7.95139e-015
lhumerus -37.8798 11.1408 71.7567
lradius 17.4624
lwrist -41.6416
lhand -13.957 28.797
lfingers 7.12502
lthumb 12.1705 58.423
rfemur -50.4147 7.81901 12.3988
rtibia 45.6963
rfoot -25.6371 -0.617048
rtoes 54.4175
lfemur -8.05924 -5.45453 -26.0433
ltibia 10.1447
lfoot -14.9348 13.9635
ltoes -18.5704
822
root 16.4401 16.7242 4.56549 250.049 -86.4394 -235.088
lowerback 15.673 -0.212294 -1.32031
upperback 1.3547 -0.572857 0.209357
thorax -7.33498 -0.26632 1.10027
lowerneck -0.842891 -1.36268 -15.4791
upperneck 17.9596 -4.98213 20.8474
head 6.26434 -2.39011 9.36154
rclavicle -6.36111e-015 -1.43125e-014
rhumerus -39.841 -9.32773 -70.2017
rradius 33.4182
rwrist -11.906
rhand -30.4905 25.3359
rfingers 7.12502
rthumb -3.79117 -4.61013
lclavicle -6.36111e-015 -1.43125e-014
lhumerus -35.4402 8.8543 74.564
lradius 19.2856
lwrist -37.4594
lhand -15.7877 30.4011
lfingers 7.12502
lthumb 10.4049 60.1236
rfemur -50.9468 12.834 5.79734
rtibia 46.7096
rfoot -29.3695 6.3735
rtoes 65.2186
lfemur -3.2389 -5.32816 -27.2875
ltibia 2.22289
lfoot -11.0037 13.5016
ltoes -17.7942
823
root 16.4524 16.7356 4.59693 253.979 -85.6398 -239.628
lowerback 15.8744 -0.116856 -2.04358
upperback 1.41617 -0.599144 -0.0222265
thorax -7.37561 -0.261925 1.27104
lowerneck -0.821957 -1.48046 -15.2664
upperneck 17.9347 -5.11805 20.6089
head 6.27361 -2.45436 9.222
rclavicle -9.74045e-015 -1.11319e-014
rhumerus -38.3411 -7.29385 -72.2178
rradius 35.7106
rwrist -13.7679
rhand -30.7776 23.2737
rfingers 7.12502
rthumb -4.0684 -6.66718
lclavicle -9.74045e-015 -1.11319e-014
lhumerus -33.3755 8.11045 76.4026
lradius 21.4497
lwrist -35.481
lhand -16.7014 31.7523
lfingers 7.12502
lthumb 9.52345 61.5171
rfemur -50.9333 12.5815 5.18349
rtibia 47.2378
rfoot -29.6988 6.53445
rtoes 65.2795
lfemur -1.49821 -5.22169 -28.4019
ltibia -7.95139e-015
lfoot -9.92373 13.389
ltoes -18.8534
824
root 16.482 16.6305 4.63774 254.869 -85.8107 -240.696
lowerback 15.9578 -0.0868008 -1.77529
upperback 1.27208 -0.508472 0.00905081
thorax -7.58216 -0.220832 1.13383
lowerneck -0.778618 -1.68635 -14.9467
upperneck 17.8421 -5.35666 20.2726
head 6.27423 -2.56646 9.01688
rclavicle -5.36719e-015 -1.03368e-014
rhumerus -36.9243 -5.66725 -73.9064
rradius 37.8422
rwrist -14.8782
rhand -31.0201 22.1847
rfingers 7.12502
rthumb -4.30254 -7.75155
lclavicle -5.36719e-015 -1.03368e-014
lhumerus -31.4063 7.53232 78.1931
lradius 24.2233
lwrist -32.0491
lhand -16.4588 33.0169
lfingers 7.12502
lthumb 9.75757 62.7709
rfemur -50.5376 7.91804 10.4273
rtibia 46.9518
rfoot -27.0661 2.36598
rtoes 59.8623
lfemur -3.88217 -5.24946 -28.4436
ltibia 4.89122
lfoot -12.2315 13.5871
ltoes -19.177
825
root 16.5197 16.4832 4.69039 253.996 -86.4891 -239.783
lowerback 16.183 -0.260074 -1.00781
upperback 0.921421 -0.574019 0.25901
thorax -8.08856 -0.263457 0.98464
lowerneck -0.791982 -1.70498 -14.7772
upperneck 17.9151 -5.31617 19.8069
head 6.28079 -2.55759 8.81703
rclavicle 6.16232e-015 1.66979e-014
rhumerus -35.5357 -3.86566 -75.3179
rradius 39.7464
rwrist -16.0492
rhand -29.0393 22.7912
rfingers 7.12502
rthumb -2.38965 -7.17515
lclavicle 6.16232e-015 1.66979e-014
lhumerus -29.9609 5.83443 80.2411
lradius 27.0215
lwrist -28.0179
lhand -17.0229 34.0776
lfingers 7.12502
lthumb 9.2132 63.8563
rfemur -50.3533 2.97244 16.5912
rtibia 45.8496
rfoot -21.6108 -11.1502
rtoes 5.4112
lfemur -7.19989 -5.31634 -27.95
ltibia 11.0639
lfoot -15.0852 13.8245
ltoes -17.8947
826
root 16.5235 16.433 4.69911 252.639 -87.1916 -238.295
lowerback 15.9429 -0.396582 -0.827012
upperback 0.631111 -0.673922 0.690497
thorax -8.2633 -0.302916 1.36667
lowerneck -0.860196 -1.62816 -14.8205
upperneck 17.9675 -5.1634 19.5956
head 6.27774 -2.4936 8.75803
rclavicle -1.59028e-015 -6.36111e-015
rhumerus -34.2674 -1.72906 -76.6492
rradius 41.6026
rwrist -16.7045
rhand -26.4064 23.78
rfingers 7.12502
rthumb 0.153261 -6.19974
lclavicle -1.59028e-015 -6.36111e-015
lhumerus -28.7761 4.20913 81.9615
lradius 29.8727
lwrist -24.4903
lhand -17.2041 34.2415
lfingers 7.12502
lthumb 9.03836 64.0279
rfemur -50.6198 1.61852 19.2541
rtibia 44.2769
rfoot -13.9232 -18.3685
rtoes -42.1033
lfemur -9.67962 -5.33187 -27.2554
ltibia 15.5028
lfoot -17.03 13.9912
ltoes -18.2255
827
root 16.4978 16.4697 4.62409 247.204 -85.8927 -231.588
lowerback 13.9065 0.216734 -3.48597
upperback 0.300333 -0.249272 0.76828
thorax -7.48117 0.00267448 2.84498
lowerneck -0.993705 -1.73201 -14.6844
upperneck 17.758 -5.26872 19.6266
head 6.25596 -2.52535 8.72783
rclavicle 5.56597e-015 -4.37326e-015
rhumerus -33.1343 0.749019 -78.045
rradius 43.9055
rwrist -16.8289
rhand -25.2531 23.4885
rfingers 7.12502
rthumb 1.26712 -6.48746
lclavicle 5.56597e-015 -4.37326e-015
lhumerus -27.3288 2.36994 83.4769
lradius 32.7596
lwrist -21.4453
lhand -16.4323 33.4524
lfingers 7.12502
lthumb 9.78309 63.2052
rfemur -53.3593 5.89238 14.9837
rtibia 42.5727
rfoot -19.3712 -12.6109
rtoes 10.1514
lfemur -12.1267 -5.03606 -27.9792
ltibia 17.3317
lfoot -17.8992 14.2284
ltoes -18.5378
828
root 16.5062 16.4631 4.64532 246.279 -85.7658 -230.962
lowerback 13.9208 0.313292 -3.61398
upperback 0.304022 -0.143374 0.756805
thorax -7.49321 0.0585287 2.88431
lowerneck -1.13731 -1.80112 -14.4186
upperneck 17.4862 -5.31709 19.6282
head 6.20209 -2.523 8.66316
rclavicle -1.98785e-016 2.3059e-014
rhumerus -32.1851 3.97769 -79.3668
rradius 46.6104
rwrist -16.797
rhand -24.8636 22.6337
rfingers 7.12502
rthumb 1.64331 -7.33972
lclavicle -1.98785e-016 2.3059e-014
lhumerus -25.926 0.449016 84.6879
lradius 35.6086
lwrist -18.6656
lhand -15.2855 32.5813
lfingers 7.12502
lthumb 10.8894 62.279
rfemur -53.1564 5.91437 15.0454
rtibia 41.2164
rfoot -19.7141 -11.3529
rtoes 19.7127
lfemur -11.5253 -4.94395 -28.1943
ltibia 16.7125
lfoot -17.7656 14.0991
ltoes -18.7663
829
root 16.5214 16.5195 4.74813 245.361 -87.1521 -231.571
lowerback 15.5126 -0.255814 -1.12614
upperback 0.462928 -0.508184 0.97791
thorax -8.20421 -0.202758 1.80308
lowerneck -1.10222 -1.67034 -14.8185
upperneck 17.2091 -5.08499 19.8024
head 6.07728 -2.42793 8.80546
rclavicle 2.18663e-015 7.15625e-015
rhumerus -31.3607 7.19859 -80.3304
rradius 49.1095
rwrist -15.6086
rhand -24.2153 23.3579
rfingers 7.12502
rthumb 2.26943 -6.60979
lclavicle 2.18663e-015 7.15625e-015
lhumerus -24.8781 -1.03134 85.6675
lradius 38.5108
lwrist -15.9536
lhand -14.1817 31.5046
lfingers 7.12502
lthumb 11.9539 61.1433
rfemur -51.2963 4.3397 17.0484
rtibia 40.3386
rfoot -20.1525 -9.49368
rtoes 26.2332
lfemur -8.37367 -5.57833 -27.3603
ltibia 14.112
lfoot -16.7034 14.1604
ltoes -18.1487
830
root 16.5202 16.5687 4.77316 238.408 -87.2613 -224.7
lowerback 15.3144 -0.392934 -1.00216
upperback 0.314741 -0.644268 1.19719
thorax -8.24689 -0.26572 1.99665
lowerneck -1.03598 -1.5062 -15.1486
upperneck 16.9031 -4.79068 19.8652
head 5.92188 -2.30513 8.89563
rclavicle 3.57812e-015 6.75868e-015
rhumerus -30.4267 9.80326 -81.1107
rradius 51.2648
rwrist -13.3878
rhand -22.6736 26.0665
rfingers 7.12502
rthumb 3.7583 -3.88011
lclavicle 3.57812e-015 6.75868e-015
lhumerus -23.9453 -2.65104 86.5061
lradius 41.5299
lwrist -12.889
lhand -13.1542 30.1229
lfingers 7.12502
lthumb 12.9446 59.7014
rfemur -51.6351 5.2939 16.643
rtibia 40.07
rfoot -22.1827 -6.56393
rtoes 42.7909
lfemur -6.56357 -6.2961 -27.1494
ltibia 10.8552
lfoot -15.3102 14.8759
ltoes -16.7401
831
root 16.5236 16.6444 4.78753 235.376 -87.1787 -221.444
lowerback 14.9144 -0.414012 -1.08142
upperback 0.133583 -0.6787 1.17387
thorax -8.2158 -0.276119 2.01931
lowerneck -1.04358 -1.47302 -14.6934
upperneck 16.4886 -4.70725 19.8726
head 5.77113 -2.23823 8.80026
rclavicle -2.38542e-015 -3.57812e-014
rhumerus -29.3326 11.5353 -81.8089
rradius 52.9782
rwrist -10.2803
rhand -20.7318 29.9723
rfingers 7.12502
rthumb 5.63332 0.0672159
lclavicle -2.38542e-015 -3.57812e-014
lhumerus -22.8535 -4.84651 87.0749
lradius 44.495
lwrist -10.0618
lhand -11.6822 29.1785
lfingers 7.12502
lthumb 14.3632 58.6616
rfemur -52.4082 6.99777 15.0247
rtibia 40.0688
rfoot -24.6803 -3.61938
rtoes 53.3518
lfemur -3.42941 -6.14235 -27.1417
ltibia 4.21924
lfoot -12.0454 14.8573
ltoes -18.3939
